<?xml version="1.0"?>
<svg xmlns="http://www.w3.org/2000/svg" xmlns:xlink="http://www.w3.org/1999/xlink" version="1.1" id="Capa_1" x="0px" y="0px" width="512px" height="512px" viewBox="0 0 96.635 96.635" style="enable-background:new 0 0 96.635 96.635;" xml:space="preserve"><g><g>
	<path d="M85.764,59.697c-1.172-4.26-2.385-8.664-2.385-13.185c0-19.13-11.61-35.58-27.469-39.633C55.532,3.024,52.271,0,48.317,0   c-3.953,0-7.215,3.023-7.593,6.88c-15.858,4.053-27.469,20.503-27.469,39.633c0,4.521-1.212,8.925-2.385,13.185   c-1.866,6.774-3.627,13.175,0.224,18.531c3.382,4.703,10.479,7.326,22.796,8.36c0,0,1.273,0.149,4.321,0.278   c0.189,5.425,4.636,9.768,10.106,9.768c5.468,0,9.914-4.34,10.106-9.762c3.078-0.131,4.321-0.284,4.321-0.284   c12.317-1.034,19.414-3.657,22.796-8.36C89.392,72.873,87.63,66.473,85.764,59.697z M77.988,72.531   c-2.095,2.914-8.767,4.703-19.826,5.318l-2.394,0.133l-0.002-0.006l-2.396,0.059c-1.601,0.041-3.277,0.062-5.053,0.062   s-3.453-0.021-5.053-0.062l-2.396-0.059l-0.002,0.006l-2.394-0.133c-11.061-0.615-17.731-2.404-19.826-5.318   c-1.74-2.42-0.551-6.738,0.826-11.739c1.172-4.257,2.5-9.081,2.5-14.278c0-15.883,9.907-29.35,23.044-31.325   c0,0,1.613-0.243,3.302-0.243s3.302,0.243,3.302,0.243c13.137,1.976,23.044,15.442,23.044,31.325c0,5.197,1.328,10.021,2.5,14.278   C78.54,65.793,79.729,70.111,77.988,72.531z" data-original="#000000" class="active-path" data-old_color="#000000" fill="#202124"/>
</g></g> </svg>
